<svg xmlns="http://www.w3.org/2000/svg" width="500" height="250" viewBox="0 0 500 250"><path d="M204.58 142.52v-37.54h1.165v36.477h18.663v1.06h-19.83zm59.168-9.014c0 1.59-.31 3.014-.928 4.268a9.747 9.747 0 0 1-2.466 3.18c-1.025.868-2.235 1.522-3.632 1.963s-2.854.663-4.374.663c-2.332 0-4.462-.416-6.39-1.246s-3.524-1.952-4.797-3.366l.904-.796a12.986 12.986 0 0 0 4.692 3.26 14.587 14.587 0 0 0 5.54 1.088c1.38 0 2.686-.203 3.924-.61a10.458 10.458 0 0 0 3.286-1.75 8.147 8.147 0 0 0 2.253-2.81c.546-1.112.82-2.394.82-3.843s-.3-2.67-.9-3.66a8.94 8.94 0 0 0-2.334-2.544c-.954-.706-2.04-1.3-3.26-1.775a56.82 56.82 0 0 0-3.686-1.3 48.728 48.728 0 0 1-4.27-1.563c-1.29-.548-2.402-1.22-3.34-2.015a8.203 8.203 0 0 1-2.172-2.863c-.513-1.113-.77-2.465-.77-4.056 0-1.552.31-2.94.93-4.16a9.05 9.05 0 0 1 2.518-3.074c1.06-.83 2.288-1.466 3.685-1.908a14.64 14.64 0 0 1 4.43-.663c1.91 0 3.72.363 5.434 1.087 1.714.726 3.12 1.76 4.215 3.103l-.9.795c-.99-1.236-2.255-2.2-3.793-2.89-1.537-.688-3.207-1.033-5.01-1.033-1.272 0-2.52.177-3.738.53-1.22.354-2.325.893-3.314 1.617a8.27 8.27 0 0 0-2.386 2.73c-.603 1.097-.9 2.387-.9 3.87 0 1.45.264 2.68.794 3.686a8.03 8.03 0 0 0 2.12 2.57 12.07 12.07 0 0 0 2.996 1.75c1.112.46 2.252.885 3.418 1.273 1.59.53 3.075 1.07 4.454 1.617 1.378.548 2.59 1.21 3.632 1.988 1.042.777 1.855 1.723 2.438 2.836s.876 2.466.876 4.057zm46.232-10.126c0 2.085-.338 4.126-1.01 6.123a19.56 19.56 0 0 1-2.81 5.434 18.328 18.328 0 0 1-4.214 4.136 13.895 13.895 0 0 1-5.223 2.28v.105h15.27v1.06h-21.42c-2.616 0-5.09-.45-7.422-1.35-2.33-.902-4.37-2.192-6.12-3.872-1.75-1.678-3.13-3.692-4.137-6.044-1.006-2.35-1.51-4.975-1.51-7.873 0-2.83.485-5.438 1.458-7.82.973-2.39 2.315-4.44 4.03-6.15 1.714-1.717 3.746-3.06 6.098-4.03 2.35-.974 4.92-1.46 7.714-1.46 2.79 0 5.363.495 7.714 1.484 2.35.99 4.383 2.352 6.098 4.083 1.715 1.73 3.058 3.78 4.03 6.148.973 2.37 1.46 4.95 1.46 7.74zm-1.168 0c0-2.51-.442-4.88-1.325-7.105-.884-2.227-2.13-4.18-3.737-5.858-1.61-1.68-3.526-3.004-5.753-3.977-2.227-.972-4.666-1.458-7.316-1.458-2.65 0-5.09.478-7.313 1.432s-4.145 2.262-5.753 3.923c-1.608 1.662-2.854 3.614-3.737 5.858-.884 2.245-1.326 4.64-1.326 7.185 0 2.51.45 4.86 1.353 7.052s2.155 4.108 3.764 5.752 3.526 2.935 5.753 3.87c2.225.938 4.664 1.405 7.314 1.405 2.757 0 5.25-.507 7.476-1.514 2.228-1.008 4.128-2.35 5.7-4.03a17.88 17.88 0 0 0 3.632-5.778 18.47 18.47 0 0 0 1.27-6.76zm38.545 10.894c-.495 1.855-1.308 3.473-2.438 4.85-1.135 1.38-2.61 2.467-4.43 3.262-1.82.796-4.057 1.193-6.707 1.193-2.65 0-4.888-.4-6.707-1.196-1.82-.795-3.297-1.882-4.428-3.26-1.13-1.38-1.945-2.996-2.44-4.852-.494-1.855-.74-3.844-.74-5.965v-23.33h1.165v23.117c0 1.484.15 3.066.45 4.745.3 1.68.92 3.233 1.856 4.664.937 1.432 2.262 2.625 3.977 3.58 1.713.953 4.002 1.43 6.865 1.43 2.79 0 5.045-.458 6.76-1.378 1.714-.92 3.048-2.095 4.003-3.526a12.538 12.538 0 0 0 1.908-4.665 26.05 26.05 0 0 0 .478-4.85V104.98h1.167v23.33c0 2.12-.248 4.11-.743 5.964zm38.228 8.246l-4.454-10.764h-21.79l-4.61 10.763h-1.272l16.277-37.54h1.484l15.64 37.537h-1.273zm-15.164-36.796l-10.653 25.024h20.995l-10.34-25.024zm44.325 36.796L403.4 123.59h-8.803v18.93h-1.166v-37.54h10.393c1.378 0 2.774.124 4.188.37 1.414.25 2.68.717 3.79 1.406 1.115.688 2.024 1.635 2.73 2.836.708 1.202 1.063 2.757 1.063 4.666 0 1.768-.337 3.234-1.008 4.4-.672 1.166-1.537 2.112-2.598 2.837s-2.236 1.245-3.526 1.563-2.553.478-3.79.478l11.4 18.98h-1.325zm-.318-28.26c0-1.625-.318-2.978-.954-4.056a7.104 7.104 0 0 0-2.52-2.545c-1.042-.62-2.244-1.055-3.604-1.3a23.26 23.26 0 0 0-4.163-.374h-8.59v16.596h9.174c3.464 0 6.106-.725 7.927-2.174s2.73-3.5 2.73-6.15zm10.497 28.26v-37.54h21.896v1.06h-20.73v16.49h19.51v1.06h-19.51v17.867h21.577v1.06h-22.745zm62.615-18.77c0 3.252-.53 6.053-1.59 8.403-1.06 2.352-2.522 4.295-4.393 5.832-1.87 1.538-4.066 2.678-6.59 3.42s-5.23 1.113-8.124 1.113h-10.64V104.98h10.64c2.893 0 5.6.363 8.124 1.088s4.72 1.855 6.59 3.394c1.87 1.537 3.335 3.49 4.394 5.858s1.59 5.178 1.59 8.43zm-30.17-17.708v35.416h9.19c2.76 0 5.355-.345 7.78-1.033 2.426-.69 4.523-1.75 6.295-3.182 1.77-1.432 3.17-3.26 4.196-5.487s1.54-4.896 1.54-8.006-.512-5.787-1.54-8.032c-1.026-2.244-2.425-4.083-4.195-5.514-1.77-1.432-3.87-2.483-6.294-3.155-2.425-.674-5.02-1.01-7.78-1.01h-9.19z"/><path fill-rule="evenodd" clip-rule="evenodd" d="M11.974 65.996h13.72v100.29h73.043v13.72H11.974V65.996zm29.566 0h86.76v114.01h-13.72V79.716H41.54v-13.72z"/></svg>