<?xml version="1.0" encoding="utf-8"?>
<!-- Generator: Adobe Illustrator 16.0.0, SVG Export Plug-In . SVG Version: 6.00 Build 0)  -->
<!DOCTYPE svg PUBLIC "-//W3C//DTD SVG 1.1//EN" "http://www.w3.org/Graphics/SVG/1.1/DTD/svg11.dtd">
<svg version="1.1" id="Layer_1" xmlns="http://www.w3.org/2000/svg" xmlns:xlink="http://www.w3.org/1999/xlink" x="0px" y="0px"
	 width="500px" height="250px" viewBox="0 0 500 250" enable-background="new 0 0 500 250" xml:space="preserve">
<g>
	<path d="M204.579,142.519v-37.537h1.166v36.477h18.663v1.061H204.579z"/>
	<path d="M263.748,133.506c0,1.59-0.31,3.014-0.928,4.268c-0.619,1.255-1.44,2.315-2.466,3.181
		c-1.025,0.867-2.235,1.521-3.632,1.962s-2.854,0.663-4.374,0.663c-2.332,0-4.462-0.416-6.389-1.246s-3.525-1.952-4.798-3.366
		l0.901-0.796c1.343,1.45,2.907,2.537,4.692,3.261c1.784,0.725,3.632,1.087,5.54,1.087c1.379,0,2.686-0.203,3.924-0.609
		c1.236-0.406,2.332-0.989,3.287-1.75c0.954-0.76,1.704-1.696,2.253-2.81c0.548-1.113,0.822-2.395,0.822-3.844
		s-0.301-2.669-0.901-3.659c-0.602-0.988-1.379-1.837-2.333-2.545c-0.954-0.706-2.041-1.299-3.261-1.775
		c-1.22-0.478-2.448-0.91-3.685-1.299c-1.556-0.495-2.979-1.016-4.269-1.564c-1.29-0.548-2.404-1.22-3.34-2.015
		c-0.938-0.795-1.662-1.75-2.174-2.863c-0.513-1.113-0.769-2.465-0.769-4.056c0-1.555,0.309-2.942,0.928-4.162
		c0.618-1.22,1.458-2.244,2.519-3.075c1.06-0.83,2.288-1.466,3.685-1.908c1.396-0.441,2.871-0.663,4.427-0.663
		c1.909,0,3.72,0.363,5.435,1.087c1.714,0.725,3.119,1.759,4.215,3.102l-0.901,0.795c-0.99-1.236-2.253-2.2-3.791-2.889
		c-1.537-0.689-3.207-1.034-5.01-1.034c-1.272,0-2.519,0.177-3.738,0.53c-1.219,0.354-2.324,0.893-3.313,1.617
		c-0.99,0.725-1.785,1.635-2.386,2.73c-0.602,1.096-0.901,2.386-0.901,3.87c0,1.449,0.266,2.678,0.796,3.685
		c0.529,1.008,1.236,1.865,2.12,2.571c0.883,0.708,1.882,1.291,2.996,1.75c1.113,0.46,2.253,0.884,3.419,1.272
		c1.591,0.53,3.075,1.069,4.454,1.617c1.378,0.548,2.589,1.211,3.632,1.988c1.042,0.777,1.855,1.723,2.438,2.836
		S263.748,131.915,263.748,133.506z"/>
	<path d="M309.979,123.379c0,2.086-0.337,4.127-1.008,6.124c-0.672,1.997-1.608,3.809-2.81,5.434
		c-1.202,1.627-2.607,3.005-4.215,4.136c-1.609,1.132-3.35,1.892-5.223,2.28v0.105h15.27v1.061h-21.42
		c-2.616,0-5.09-0.45-7.422-1.352c-2.333-0.901-4.374-2.191-6.124-3.871c-1.75-1.678-3.128-3.692-4.136-6.044
		c-1.007-2.35-1.511-4.975-1.511-7.873c0-2.827,0.485-5.435,1.458-7.82c0.972-2.386,2.314-4.436,4.029-6.15
		c1.714-1.714,3.746-3.057,6.098-4.029c2.35-0.972,4.921-1.458,7.714-1.458c2.792,0,5.363,0.495,7.714,1.484
		c2.351,0.99,4.383,2.352,6.098,4.083c1.714,1.731,3.057,3.782,4.029,6.149C309.493,118.007,309.979,120.587,309.979,123.379z
		 M308.812,123.379c0-2.51-0.442-4.878-1.325-7.104c-0.884-2.227-2.13-4.18-3.737-5.858c-1.609-1.679-3.526-3.004-5.753-3.977
		c-2.227-0.972-4.666-1.458-7.316-1.458c-2.651,0-5.09,0.478-7.316,1.432s-4.145,2.262-5.753,3.923
		c-1.608,1.662-2.854,3.614-3.737,5.858c-0.884,2.245-1.326,4.64-1.326,7.185c0,2.51,0.451,4.86,1.353,7.052
		s2.155,4.108,3.764,5.752s3.526,2.935,5.753,3.87c2.227,0.938,4.666,1.405,7.316,1.405c2.757,0,5.249-0.504,7.476-1.511
		c2.227-1.008,4.127-2.351,5.7-4.029c1.572-1.679,2.783-3.605,3.631-5.779C308.389,127.965,308.812,125.712,308.812,123.379z"/>
	<path d="M347.357,134.274c-0.495,1.855-1.308,3.473-2.438,4.851c-1.132,1.379-2.607,2.466-4.428,3.261
		c-1.82,0.796-4.056,1.193-6.706,1.193c-2.651,0-4.888-0.397-6.707-1.193c-1.821-0.795-3.297-1.882-4.428-3.261
		c-1.131-1.378-1.944-2.995-2.438-4.851c-0.495-1.855-0.742-3.844-0.742-5.965v-23.328h1.166v23.116c0,1.484,0.15,3.066,0.451,4.745
		c0.3,1.679,0.919,3.234,1.855,4.665c0.937,1.432,2.262,2.625,3.977,3.579c1.714,0.954,4.003,1.432,6.866,1.432
		c2.791,0,5.045-0.459,6.76-1.379c1.714-0.918,3.048-2.094,4.003-3.525c0.954-1.432,1.59-2.986,1.908-4.666
		c0.318-1.678,0.478-3.295,0.478-4.851v-23.116h1.166v23.328C348.1,130.431,347.852,132.419,347.357,134.274z"/>
	<path d="M385.585,142.519l-4.454-10.763h-21.79l-4.613,10.763h-1.272l16.277-37.537h1.484l15.641,37.537H385.585z M370.421,105.724
		l-10.656,25.024h20.995L370.421,105.724z"/>
	<path d="M414.744,142.519l-11.346-18.928h-8.802v18.928h-1.166v-37.537h10.392c1.378,0,2.774,0.124,4.188,0.371
		c1.413,0.248,2.678,0.716,3.791,1.405c1.113,0.688,2.022,1.635,2.73,2.836c0.706,1.202,1.061,2.757,1.061,4.666
		c0,1.768-0.337,3.234-1.008,4.4c-0.672,1.166-1.537,2.112-2.598,2.837s-2.236,1.245-3.526,1.563s-2.554,0.478-3.79,0.478
		l11.398,18.98H414.744z M414.426,114.26c0-1.625-0.318-2.978-0.954-4.056c-0.637-1.078-1.477-1.927-2.519-2.545
		c-1.043-0.618-2.245-1.052-3.605-1.299c-1.361-0.247-2.748-0.372-4.162-0.372h-8.589v16.596h9.173c3.463,0,6.105-0.725,7.926-2.174
		S414.426,116.91,414.426,114.26z"/>
	<path d="M424.923,142.519v-37.537h21.896v1.061h-20.73v16.488H445.6v1.061h-19.511v17.867h21.579v1.061H424.923z"/>
	<path d="M487.538,123.75c0,3.252-0.529,6.053-1.588,8.403c-1.059,2.352-2.523,4.295-4.394,5.832c-1.87,1.538-4.066,2.678-6.59,3.42
		s-5.231,1.113-8.124,1.113h-10.639v-37.537h10.639c2.893,0,5.601,0.362,8.124,1.087s4.72,1.855,6.59,3.394
		c1.87,1.537,3.335,3.49,4.394,5.858S487.538,120.498,487.538,123.75z M457.37,106.042v35.416h9.189
		c2.762,0,5.355-0.345,7.781-1.033c2.425-0.689,4.522-1.75,6.294-3.182c1.771-1.432,3.169-3.261,4.196-5.487s1.54-4.896,1.54-8.006
		s-0.513-5.787-1.54-8.032c-1.027-2.244-2.426-4.083-4.196-5.514c-1.771-1.432-3.869-2.483-6.294-3.155
		c-2.426-0.671-5.02-1.007-7.781-1.007H457.37z"/>
</g>
<path fill-rule="evenodd" clip-rule="evenodd" d="M11.974,65.996c4.572,0,9.147,0,13.721,0c0,33.428,0,66.863,0,100.289
	c24.345,0,48.697,0,73.042,0c0,4.574,0,9.146,0,13.72c-28.917,0-57.844,0-86.763,0C11.974,142.006,11.974,103.996,11.974,65.996z"/>
<path fill-rule="evenodd" clip-rule="evenodd" d="M41.539,65.996c28.918,0,57.846,0,86.763,0c0,38,0,76.01,0,114.009
	c-4.573,0-9.146,0-13.72,0c0-33.427,0-66.862,0-100.29c-24.344,0-48.697,0-73.043,0C41.539,75.143,41.539,70.57,41.539,65.996z"/>
</svg>
